<svg xmlns="http://www.w3.org/2000/svg" width="100" height="50">
    <path d="M36.625-43.082h8.339c3.232 0 6.556 1.48 6.556 5.378 0 2.417-1.511 4.019-3.715 4.683v.061c2.689.302 4.623 2.417 4.623 5.166 0 4.653-4.049 6.104-8.097 6.104h-7.704l-.002-21.392zm3.807 8.701h3.475c2.538 0 3.807-1.087 3.807-2.688 0-1.843-1.269-2.75-4.139-2.75h-3.142l-.001 5.438zm0 9.427h3.505c1.964 0 4.683-.333 4.683-3.143 0-2.235-1.45-3.021-4.532-3.021h-3.656v6.164zm23.746 1.268h-.091c-1.026 1.632-2.719 2.356-4.651 2.356-2.689 0-5.287-1.48-5.287-4.351 0-4.713 5.498-5.045 9.123-5.045h.906v-.393c0-1.783-1.39-2.719-3.322-2.719-1.512 0-2.9.604-3.867 1.511l-1.903-1.903c1.603-1.631 3.867-2.326 6.163-2.326 6.193 0 6.193 4.471 6.193 6.525v8.339h-3.264v-1.994zm-.212-4.502h-.755c-1.994 0-5.438.151-5.438 2.236 0 1.329 1.358 1.903 2.537 1.903 2.479 0 3.655-1.299 3.655-3.323v-.816zm4.925-4.924v-3.082h2.99v-4.2h3.626v4.2h3.987v3.082h-3.987v6.344c0 1.451.423 2.357 2.022 2.357.636 0 1.512-.121 1.965-.453v3.051c-.756.363-2.023.483-2.87.483-3.837 0-4.743-1.722-4.743-5.136v-6.647l-2.99.001zm25.92 11.421h-3.442v-2.326h-.062c-.664 1.45-2.023 2.688-4.44 2.688-3.897 0-5.287-2.749-5.287-5.71v-9.154h3.625v7.342c0 1.602.121 4.26 2.659 4.26 2.387 0 3.322-1.752 3.322-3.686v-7.916h3.625v14.502z" fill="#3575D3"/>
    <path d="M66.568-18.231h-.465v-.355h.465v-.484c0-.574.201-.857.74-.857.09 0 .19.005.305.032l-.045.364a.595.595 0 0 0-.232-.041c-.301 0-.352.188-.352.488v.498h.488v.355h-.492v1.807h-.412v-1.807zm2.407-.412a1.136 1.136 0 1 1 0 2.273 1.136 1.136 0 1 1 0-2.273zm0 1.89c.438 0 .711-.315.711-.753s-.272-.753-.711-.753c-.438 0-.711.314-.711.753 0 .438.272.753.711.753zm1.666-1.834h.41v.333h.01c.104-.229.379-.389.647-.389.063 0 .128.01.183.027l-.019.443a.764.764 0 0 0-.2-.032c-.402 0-.621.219-.621.693v1.086h-.41v-2.161zm2.957 0h.409v.31h.009c.16-.232.461-.365.754-.365.67 0 1.1.498 1.1 1.137 0 .647-.434 1.136-1.1 1.136-.311 0-.606-.142-.754-.365h-.009v1.597h-.409v-3.45zm.409 1.081c0 .438.272.753.712.753.438 0 .713-.315.713-.753s-.274-.753-.713-.753c-.44 0-.712.315-.712.753zm4.294 1.081h-.41v-.333h-.01c-.104.229-.379.388-.712.388-.42 0-.784-.251-.784-.826v-1.391h.41v1.277c0 .405.232.557.493.557.342 0 .603-.22.603-.722v-1.112h.41v2.162zm.621-3.449h.41v1.597h.01c.146-.224.442-.365.752-.365.666 0 1.1.488 1.1 1.137 0 .639-.428 1.136-1.1 1.136-.292 0-.593-.132-.752-.365h-.01v.311h-.41v-3.451zm1.834 2.368c0-.438-.273-.753-.712-.753s-.712.314-.712.753c0 .438.273.753.712.753.436 0 .712-.315.712-.753zm.985-2.368h.411v3.449h-.411v-3.449zm1.302.21c.164 0 .301.137.301.301a.305.305 0 0 1-.301.302.305.305 0 0 1-.302-.302c0-.164.137-.301.302-.301zm-.206 1.077h.411v2.162h-.411v-2.162zm2.608.574a.684.684 0 0 0-.537-.241c-.447 0-.676.36-.676.766s.273.735.699.735a.636.636 0 0 0 .523-.242l.292.292c-.215.237-.507.333-.821.333-.666 0-1.132-.461-1.132-1.127s.456-1.141 1.132-1.141c.314 0 .616.109.83.343l-.31.282zm2.233.658c0 .379.352.63.73.63.251 0 .434-.128.593-.324l.312.237c-.229.297-.543.442-.959.442-.685 0-1.112-.493-1.112-1.136 0-.648.47-1.137 1.116-1.137.764 0 1.056.584 1.056 1.141v.146l-1.736.001zm1.297-.329c-.01-.361-.211-.63-.625-.63-.406 0-.672.342-.672.63h1.297zm3.097 1.259h-.411v-.311h-.009c-.16.233-.461.365-.754.365-.67 0-1.1-.497-1.1-1.136 0-.648.434-1.137 1.1-1.137.312 0 .607.142.754.365h.009v-1.597h.411v3.451zm-.411-1.081c0-.438-.272-.753-.711-.753s-.712.314-.712.753c0 .438.273.753.712.753s.711-.315.711-.753zm2.948 1.081h-.411v-.333h-.009c-.104.229-.379.388-.713.388-.42 0-.783-.251-.783-.826v-1.391h.41v1.277c0 .405.231.557.492.557.342 0 .603-.22.603-.722v-1.112h.411v2.162z" fill="#58595B"/>
    <path fill="#3575D3" d="M5.252-37.702v12.092c0 .64.519 1.159 1.159 1.159h4.873v-1.168H6.532a.117.117 0 0 1-.116-.115v-11.127l20.311-5.302v16.43a.116.116 0 0 1-.116.115H14.935v1.168h11.798c.64 0 1.159-.52 1.159-1.159v-18.042l-22.64 5.949z"/>
    <path fill="#003A76" d="M28.904-33.39v1.168l3.835.662v9.997a.117.117 0 0 1-.116.116H13.732a.117.117 0 0 1-.116-.116v-13.3l11.948 2.064v-1.163L12.49-36.195v14.68c0 .64.519 1.16 1.159 1.16h13.084v2.752a.117.117 0 0 1-.117.116H11.183v1.198h15.433c.705 0 1.275-.57 1.275-1.275v-2.791h4.804a1.16 1.16 0 0 0 1.159-1.16v-11.029l-4.95-.846z"/>
    <path d="M6.032 8.744h12.557c4.867 0 9.873 2.229 9.873 8.099 0 3.64-2.275 6.052-5.595 7.053v.091c4.049.454 6.961 3.638 6.961 7.779 0 7.006-6.097 9.19-12.193 9.19H6.034V8.744h-.002zm5.733 13.102h5.233c3.821 0 5.732-1.637 5.732-4.048 0-2.776-1.911-4.141-6.232-4.141h-4.731v8.189h-.002zm0 14.195h5.278c2.958 0 7.052-.5 7.052-4.732 0-3.364-2.184-4.549-6.825-4.549h-5.505v9.281zm35.758 1.91h-.137c-1.545 2.457-4.094 3.549-7.004 3.549-4.05 0-7.962-2.229-7.962-6.553 0-7.098 8.279-7.599 13.738-7.599h1.365v-.592c0-2.684-2.093-4.095-5.003-4.095-2.276 0-4.368.91-5.824 2.276l-2.866-2.865c2.414-2.457 5.824-3.503 9.281-3.503 9.327 0 9.327 6.732 9.327 9.825v12.559h-4.915v-3.002zm-.319-6.777h-1.137c-3.003 0-8.188.226-8.188 3.364 0 2.003 2.045 2.866 3.82 2.866 3.732 0 5.504-1.956 5.504-5.005v-1.225zm7.416-7.419v-4.64h4.502v-6.324h5.461v6.324h6.004v4.64h-6.004v9.555c0 2.184.637 3.548 3.045 3.548.958 0 2.276-.182 2.959-.682v4.595c-1.138.546-3.047.729-4.322.729-5.777 0-7.143-2.595-7.143-7.735v-10.01H54.62zm39.031 17.198h-5.184v-3.502h-.093c-1 2.184-3.047 4.049-6.687 4.049-5.869 0-7.962-4.142-7.962-8.601V19.116h5.459v11.056c0 2.413.183 6.415 4.004 6.415 3.595 0 5.003-2.639 5.003-5.552V19.116h5.459v21.837h.001z" fill="#3575D3"/>
    <path d="M35.126 126.318h8.339c3.232 0 6.556 1.48 6.556 5.379 0 2.417-1.511 4.019-3.716 4.684v.061c2.689.302 4.623 2.416 4.623 5.166 0 4.652-4.049 6.104-8.097 6.104h-7.704l-.001-21.394zm3.807 8.703h3.475c2.538 0 3.807-1.088 3.807-2.688 0-1.844-1.269-2.75-4.139-2.75h-3.142l-.001 5.438zm0 9.426h3.505c1.964 0 4.683-.333 4.683-3.143 0-2.236-1.45-3.021-4.532-3.021h-3.656v6.164zm23.745 1.269h-.091c-1.026 1.632-2.719 2.356-4.651 2.356-2.689 0-5.287-1.48-5.287-4.352 0-4.713 5.498-5.046 9.123-5.046h.906v-.393c0-1.782-1.39-2.72-3.322-2.72-1.512 0-2.9.604-3.867 1.512l-1.903-1.903c1.603-1.631 3.867-2.325 6.163-2.325 6.193 0 6.193 4.471 6.193 6.524v8.339h-3.264v-1.992zm-.212-4.501h-.755c-1.994 0-5.438.15-5.438 2.235 0 1.329 1.358 1.903 2.537 1.903 2.479 0 3.655-1.299 3.655-3.324v-.814zm4.925-4.926v-3.081h2.99v-4.2h3.626v4.2h3.987v3.081h-3.987v6.345c0 1.451.423 2.357 2.022 2.357.636 0 1.512-.121 1.965-.453v3.051c-.756.363-2.023.483-2.87.483-3.837 0-4.743-1.723-4.743-5.137v-6.646h-2.99zm25.92 11.421h-3.442v-2.326h-.062c-.664 1.45-2.023 2.688-4.44 2.688-3.897 0-5.287-2.749-5.287-5.711v-9.153h3.625v7.342c0 1.603.121 4.261 2.659 4.261 2.387 0 3.322-1.752 3.322-3.688v-7.915h3.625v14.502z" fill="#FFF"/>
    <path fill="#BAC0DE" d="M6.252 130.741v10.834c0 .572.465 1.037 1.038 1.037h4.366v-1.045H7.399a.106.106 0 0 1-.104-.104v-9.968l18.195-4.75v14.718a.105.105 0 0 1-.104.104h-10.46v1.045h10.568c.574 0 1.038-.465 1.038-1.037v-16.163l-20.28 5.329z"/>
    <path fill="#FFF" d="M27.44 134.604v1.047l3.437.594v8.955a.105.105 0 0 1-.104.104H13.849a.105.105 0 0 1-.104-.104v-11.914l10.702 1.85v-1.043l-11.712-2.001v13.15c0 .573.466 1.04 1.039 1.04h11.721v2.464a.105.105 0 0 1-.104.104H11.565v1.072h13.826c.631 0 1.142-.511 1.142-1.143v-2.5h4.304c.573 0 1.037-.467 1.037-1.039v-9.881l-4.434-.755z"/>
    <path fill="#3575D3" d="M29.856 70.775v17.034c0 .899.73 1.633 1.631 1.633h6.865v-1.646h-6.694a.165.165 0 0 1-.164-.163V71.959l28.611-7.469v23.143a.165.165 0 0 1-.164.163H43.495v1.646h16.618c.902 0 1.633-.732 1.633-1.633V62.396l-31.89 8.379z"/>
    <path fill="#003A76" d="M63.174 76.85v1.646l5.402.934v14.08c0 .09-.076.164-.164.164H41.801a.163.163 0 0 1-.163-.164V74.775l16.831 2.908v-1.641l-18.418-3.146v20.681c0 .9.731 1.635 1.634 1.635h18.431v3.875c0 .09-.074.164-.164.164H38.209v1.688h21.74c.992 0 1.797-.803 1.797-1.795v-3.932h6.768c.9 0 1.631-.732 1.631-1.635V78.04l-6.971-1.19z"/>
</svg>
