<svg xmlns="http://www.w3.org/2000/svg" width="100" height="50">
  <g fill="#3575D3">
    <path d="M36.625-155.749h8.339c3.232 0 6.556 1.48 6.556 5.378 0 2.417-1.511 4.019-3.716 4.683v.061c2.689.302 4.623 2.417 4.623 5.166 0 4.653-4.049 6.104-8.097 6.104h-7.704v-21.392zm3.807 8.701h3.475c2.538 0 3.807-1.087 3.807-2.688 0-1.843-1.269-2.75-4.139-2.75h-3.142v5.438zm0 9.427h3.505c1.964 0 4.683-.333 4.683-3.143 0-2.235-1.45-3.021-4.532-3.021h-3.656v6.164zM64.178-136.353h-.091c-1.027 1.632-2.719 2.356-4.652 2.356-2.689 0-5.287-1.48-5.287-4.351 0-4.713 5.498-5.045 9.124-5.045h.906v-.393c0-1.783-1.39-2.719-3.323-2.719a5.7 5.7 0 0 0-3.867 1.511l-1.903-1.903c1.602-1.631 3.867-2.326 6.163-2.326 6.193 0 6.193 4.471 6.193 6.525v8.339h-3.263v-1.994zm-.212-4.501h-.755c-1.994 0-5.438.151-5.438 2.236 0 1.329 1.359 1.903 2.538 1.903 2.478 0 3.655-1.299 3.655-3.323v-.816zM68.89-145.779v-3.082h2.991v-4.2h3.626v4.2h3.987v3.082h-3.987v6.344c0 1.451.423 2.357 2.023 2.357.635 0 1.511-.121 1.964-.453v3.051c-.755.363-2.023.483-2.87.483-3.837 0-4.743-1.722-4.743-5.136v-6.647H68.89zM94.811-134.358h-3.443v-2.326h-.061c-.665 1.45-2.024 2.688-4.441 2.688-3.897 0-5.287-2.749-5.287-5.71v-9.154h3.625v7.342c0 1.602.121 4.26 2.659 4.26 2.387 0 3.323-1.752 3.323-3.686v-7.916h3.625v14.502z"/>
  </g>
  <g fill="#58595B">
    <path d="M66.569-130.898h-.465v-.355h.465v-.484c0-.574.201-.857.739-.857.091 0 .191.005.306.032l-.046.364a.595.595 0 0 0-.232-.041c-.301 0-.352.188-.352.488v.498h.488v.355h-.492v1.807h-.411v-1.807zM68.975-131.31a1.136 1.136 0 1 1 0 2.273 1.136 1.136 0 1 1 0-2.273zm0 1.89c.438 0 .711-.315.711-.753s-.273-.753-.711-.753c-.438 0-.712.314-.712.753 0 .438.273.753.712.753zM70.641-131.254h.41v.333h.01c.104-.229.378-.389.647-.389.063 0 .128.01.183.027l-.019.443a.764.764 0 0 0-.2-.032c-.402 0-.621.219-.621.693v1.086h-.41v-2.161zM73.597-131.254h.41v.31h.009c.16-.232.461-.365.753-.365.671 0 1.1.498 1.1 1.137 0 .647-.434 1.136-1.1 1.136-.31 0-.606-.142-.753-.365h-.009v1.597h-.41v-3.45zm.41 1.081c0 .438.273.753.712.753.438 0 .712-.315.712-.753s-.274-.753-.712-.753c-.439 0-.712.315-.712.753zM78.301-129.092h-.411v-.333h-.009c-.104.229-.379.388-.712.388-.42 0-.784-.251-.784-.826v-1.391h.41v1.277c0 .405.232.557.493.557.342 0 .602-.22.602-.722v-1.112h.411v2.162zM78.922-132.541h.41v1.597h.01c.146-.224.442-.365.752-.365.666 0 1.1.488 1.1 1.137 0 .639-.429 1.136-1.1 1.136-.292 0-.593-.132-.752-.365h-.01v.311h-.41v-3.451zm1.834 2.368c0-.438-.274-.753-.712-.753-.438 0-.712.314-.712.753 0 .438.273.753.712.753.437 0 .712-.315.712-.753zM81.741-132.541h.411v3.449h-.411v-3.449zM83.043-132.331c.164 0 .301.137.301.301s-.137.302-.301.302c-.165 0-.302-.138-.302-.302s.137-.301.302-.301zm-.206 1.077h.411v2.162h-.411v-2.162zM85.446-130.68a.688.688 0 0 0-.538-.241c-.447 0-.675.36-.675.766s.273.735.698.735a.638.638 0 0 0 .524-.242l.292.292c-.215.237-.507.333-.821.333-.666 0-1.132-.461-1.132-1.127s.456-1.141 1.132-1.141c.314 0 .616.109.83.343l-.31.282zM87.678-130.022c0 .379.352.63.73.63.251 0 .434-.128.593-.324l.311.237c-.229.297-.543.442-.958.442-.685 0-1.113-.493-1.113-1.136 0-.648.47-1.137 1.117-1.137.763 0 1.055.584 1.055 1.141v.146h-1.735zm1.296-.329c-.009-.361-.21-.63-.625-.63-.406 0-.671.342-.671.63h1.296zM92.072-129.092h-.411v-.311h-.009c-.16.233-.461.365-.753.365-.671 0-1.1-.497-1.1-1.136 0-.648.434-1.137 1.1-1.137.311 0 .607.142.753.365h.009v-1.597h.411v3.451zm-.411-1.081c0-.438-.273-.753-.711-.753-.438 0-.712.314-.712.753 0 .438.273.753.712.753.438 0 .711-.315.711-.753zM94.609-129.092h-.411v-.333h-.009c-.104.229-.379.388-.712.388-.42 0-.784-.251-.784-.826v-1.391h.41v1.277c0 .405.232.557.493.557.342 0 .602-.22.602-.722v-1.112h.411v2.162z"/>
  </g>
  <path fill="#3575D3" d="M5.252-150.369v12.092c0 .64.519 1.159 1.159 1.159h4.873v-1.168H6.532a.117.117 0 0 1-.116-.115v-11.127l20.311-5.302v16.43a.116.116 0 0 1-.116.115H14.935v1.168h11.798c.64 0 1.159-.52 1.159-1.159v-18.042l-22.64 5.949z"/>
  <path fill="#003A76" d="M28.904-146.057v1.168l3.835.662v9.997a.117.117 0 0 1-.116.116H13.732a.117.117 0 0 1-.116-.116V-147.53l11.948 2.064v-1.163l-13.074-2.234v14.68c0 .64.519 1.16 1.159 1.16h13.084v2.752a.117.117 0 0 1-.117.116H11.183v1.198h15.433c.705 0 1.275-.57 1.275-1.275v-2.791h4.804a1.16 1.16 0 0 0 1.159-1.16v-11.029l-4.95-.845z"/>
  <g fill="#3575D3">
    <path d="M35.125-99.779h8.339c3.232 0 6.556 1.48 6.556 5.378 0 2.417-1.511 4.019-3.716 4.684v.061c2.689.301 4.623 2.416 4.623 5.166 0 4.652-4.049 6.103-8.097 6.103h-7.704v-21.392zm3.807 8.701h3.475c2.538 0 3.807-1.087 3.807-2.688 0-1.844-1.269-2.75-4.139-2.75h-3.142v5.438zm0 9.427h3.505c1.964 0 4.683-.333 4.683-3.143 0-2.235-1.45-3.021-4.532-3.021h-3.656v6.164zM62.678-80.383h-.091c-1.027 1.632-2.719 2.356-4.652 2.356-2.689 0-5.287-1.48-5.287-4.351 0-4.713 5.498-5.046 9.124-5.046h.906v-.393c0-1.782-1.39-2.719-3.323-2.719a5.7 5.7 0 0 0-3.867 1.511l-1.903-1.903c1.602-1.631 3.867-2.326 6.163-2.326 6.193 0 6.193 4.471 6.193 6.525v8.339h-3.263v-1.993zm-.212-4.501h-.755c-1.994 0-5.438.15-5.438 2.235 0 1.329 1.359 1.903 2.538 1.903 2.478 0 3.655-1.299 3.655-3.323v-.815zM67.39-89.81v-3.081h2.991v-4.2h3.626v4.2h3.987v3.081h-3.987v6.345c0 1.451.423 2.357 2.023 2.357.635 0 1.511-.121 1.964-.453v3.051c-.755.363-2.023.483-2.87.483-3.837 0-4.743-1.722-4.743-5.136v-6.647H67.39zM93.311-78.389h-3.443v-2.326h-.061c-.665 1.45-2.024 2.688-4.441 2.688-3.897 0-5.287-2.749-5.287-5.71v-9.154h3.625v7.342c0 1.602.121 4.26 2.659 4.26 2.387 0 3.323-1.752 3.323-3.687v-7.915h3.625v14.502z"/>
  </g>
  <path fill="#3575D3" d="M6.252-95.357v10.833c0 .572.464 1.038 1.038 1.038h4.366v-1.046H7.399a.105.105 0 0 1-.104-.104v-9.968l18.195-4.75v14.718a.105.105 0 0 1-.104.104h-10.46v1.046h10.569c.573 0 1.038-.466 1.038-1.038v-16.162L6.252-95.357z"/>
  <path fill="#003A76" d="M27.44-91.494v1.046l3.436.594v8.955a.105.105 0 0 1-.104.104H13.849a.105.105 0 0 1-.104-.104V-92.813l10.703 1.85v-1.043l-11.712-2.001V-80.857c0 .573.465 1.04 1.039 1.04h11.721v2.464a.104.104 0 0 1-.104.104H11.564v1.073H25.39c.631 0 1.142-.511 1.142-1.142v-2.5h4.304a1.04 1.04 0 0 0 1.038-1.04V-90.738l-4.434-.756z"/>
  <g fill="#FFF">
    <path d="M35.126 13.652h8.339c3.232 0 6.556 1.48 6.556 5.378 0 2.417-1.511 4.019-3.716 4.684v.061c2.689.301 4.623 2.416 4.623 5.166 0 4.652-4.049 6.103-8.097 6.103h-7.704V13.652zm3.807 8.702h3.475c2.538 0 3.807-1.087 3.807-2.688 0-1.844-1.269-2.75-4.139-2.75h-3.142v5.438zm0 9.426h3.505c1.964 0 4.683-.333 4.683-3.143 0-2.235-1.45-3.021-4.532-3.021h-3.656v6.164zM62.678 33.049h-.091c-1.027 1.632-2.719 2.356-4.652 2.356-2.689 0-5.287-1.48-5.287-4.351 0-4.713 5.498-5.046 9.124-5.046h.906v-.393c0-1.782-1.39-2.719-3.323-2.719a5.7 5.7 0 0 0-3.867 1.511l-1.903-1.903c1.602-1.631 3.867-2.326 6.163-2.326 6.193 0 6.193 4.471 6.193 6.525v8.339h-3.263v-1.993zm-.212-4.501h-.755c-1.994 0-5.438.15-5.438 2.235 0 1.329 1.359 1.903 2.538 1.903 2.478 0 3.655-1.299 3.655-3.323v-.815zM67.39 23.622v-3.081h2.991v-4.2h3.626v4.2h3.987v3.081h-3.987v6.345c0 1.451.423 2.357 2.023 2.357.635 0 1.511-.121 1.964-.453v3.051c-.755.363-2.023.483-2.87.483-3.837 0-4.743-1.722-4.743-5.136v-6.647H67.39zM93.311 35.043h-3.443v-2.326h-.061c-.665 1.45-2.024 2.688-4.441 2.688-3.897 0-5.287-2.749-5.287-5.71v-9.154h3.625v7.342c0 1.602.121 4.26 2.659 4.26 2.387 0 3.323-1.752 3.323-3.687v-7.915h3.625v14.502z"/>
  </g>
  <path fill="#BAC0DE" d="M6.252 18.074v10.833c0 .572.465 1.038 1.038 1.038h4.366v-1.046H7.399a.105.105 0 0 1-.104-.104v-9.968l18.195-4.75v14.718a.105.105 0 0 1-.104.104h-10.46v1.046h10.568c.574 0 1.038-.466 1.038-1.038V12.745l-20.28 5.329z"/>
  <path fill="#FFF" d="M27.44 21.938v1.046l3.437.594v8.955a.105.105 0 0 1-.104.104H13.849a.105.105 0 0 1-.104-.104V20.619l10.702 1.85v-1.043l-11.712-2.001V32.575c0 .573.466 1.04 1.039 1.04h11.721v2.464a.105.105 0 0 1-.104.104H11.565v1.073h13.826c.631 0 1.142-.511 1.142-1.142v-2.5h4.304a1.04 1.04 0 0 0 1.037-1.04V22.694l-4.434-.756z"/>
  <path fill="#3575D3" d="M29.856-41.892v17.033c0 .9.73 1.633 1.631 1.633h6.865v-1.645h-6.694a.165.165 0 0 1-.164-.163V-40.708l28.612-7.469V-25.035a.165.165 0 0 1-.164.163H43.495v1.645h16.618c.902 0 1.633-.732 1.633-1.633v-25.413l-31.89 8.381z"/>
  <path fill="#003A76" d="M63.174-35.817v1.646l5.402.934V-19.156a.167.167 0 0 1-.164.164H41.801a.164.164 0 0 1-.163-.164v-18.735l16.831 2.908v-1.64L40.051-39.77V-19.091c0 .901.731 1.635 1.634 1.635h18.431v3.875c0 .09-.074.164-.164.164H38.209v1.688h21.74c.992 0 1.797-.803 1.797-1.795v-3.932h6.768c.9 0 1.631-.733 1.631-1.635v-15.536l-6.971-1.19z"/>
</svg>