<svg xmlns="http://www.w3.org/2000/svg" width="22.68" height="22.68">
  <g fill="none" stroke="#3575D3" stroke-width="1.5" stroke-miterlimit="10">
    <path d="M13.405 17.921a2.093 2.093 0 1 1-4.161.336c0-.115.01-.229.027-.341M11.339 3.329l.001-1.439"/>
    <path d="M18.32 16.68l-2.4-4.022c.032-.219.067-.437.067-.664V8.356a4.649 4.649 0 1 0-9.296 0v3.637c0 .228.036.447.067.666l-2.4 4.021s-.295 1.364 1.398 1.228l5.582.009h.001l5.582-.009c1.695.136 1.399-1.228 1.399-1.228zm-6.981-.038"/>
  </g>
  <circle fill="none" stroke="#3575D3" stroke-width="1.5" stroke-miterlimit="10" cx="46.06" cy="10.812" r="8.323"/>
  <text transform="translate(42.435 14.172)" fill="#3575D3" font-family="'YDIYGO330'" font-size="12">
    ?
  </text>
  <path fill="none" stroke="#3575D3" stroke-width="1.5" stroke-miterlimit="10" d="M82.179 19.51h18.419c-.543-3.541-2.622-6.479-5.432-7.894a5.484 5.484 0 0 0 1.728-3.998 5.505 5.505 0 0 0-11.011 0 5.48 5.48 0 0 0 1.729 3.998c-2.811 1.414-4.89 4.353-5.433 7.894z"/>
  <path fill="#3575D3" d="M66.281 8.988l-3.321 5.754-3.322-5.754z"/>
</svg>