<svg xmlns="http://www.w3.org/2000/svg" width="22.68" height="22.68">
  <circle fill="none" stroke="#3575D3" stroke-width="1.5" stroke-miterlimit="10" cx="11.451" cy="11.34" r="8.323"/>
  <path fill="#3575D3" d="M9.087 6.701c.496-.628 1.3-.942 2.412-.942.944 0 1.704.303 2.28.906.576.604.783 1.311.624 2.118-.177.944-.616 1.584-1.32 1.92s-1.056.92-1.056 1.752v1.188h-1.2v-1.152c0-1.048.348-1.766 1.044-2.154.696-.388 1.111-.913 1.248-1.578a1.559 1.559 0 0 0-.313-1.283c-.295-.393-.752-.588-1.368-.588-.64 0-1.112.176-1.416.527-.304.353-.44.796-.408 1.332h-1.2c-.047-.735.177-1.418.673-2.046zm3.132 8.094v1.513h-1.56v-1.513h1.56z"/>
  <path fill="none" stroke="#3575D3" stroke-width="1.5" stroke-miterlimit="10" d="M82.179 19.51h18.419c-.543-3.541-2.622-6.479-5.432-7.894a5.487 5.487 0 0 0 1.728-3.998 5.506 5.506 0 0 0-11.011 0c0 1.576.666 2.993 1.729 3.998-2.811 1.414-4.89 4.353-5.433 7.894z"/>
  <path fill="#3575D3" d="M66.281 8.988l-3.321 5.754-3.322-5.754z"/>
</svg>