<svg xmlns="http://www.w3.org/2000/svg" width="100" height="100">
  <path fill="#3575D3" d="M82.576 90.364a4.797 4.797 0 0 1-4.797 4.797H22.221a4.797 4.797 0 0 1-4.796-4.797v-79.54a4.796 4.796 0 0 1 4.796-4.796h55.558a4.796 4.796 0 0 1 4.797 4.796v79.54z"/>
  <g fill="none" stroke="#FFF" stroke-width="2" stroke-linecap="round" stroke-miterlimit="10">
    <path d="M53.863 26.31c3.763 1.531 6.417 5.226 6.416 9.539 0 5.686-4.608 10.293-10.293 10.293s-10.293-4.607-10.293-10.293c0-4.264 2.592-7.922 6.287-9.484M49.986 22.887v11.999"/>
  </g>
  <path fill="none" stroke="#FFF" stroke-linecap="round" stroke-miterlimit="10" d="M73.117 69.232a1 1 0 0 1-1 1H27.45a1 1 0 0 1-1-1V64.3a1 1 0 0 1 1-1h44.667a1 1 0 0 1 1 1v4.932zM73.117 82.394a1 1 0 0 1-1 1H27.45a1 1 0 0 1-1-1v-4.933a1 1 0 0 1 1-1h44.667a1 1 0 0 1 1 1v4.933z"/>
</svg>