<svg xmlns="http://www.w3.org/2000/svg" width="100" height="100">
    <path fill="none" stroke="#6D6E70" stroke-linecap="round" stroke-miterlimit="10" d="M-32.436 36.837c0 .342-.299.615-.668.615h-42.178c-.369 0-.668-.273-.668-.615V13.164c0-.34.299-.615.668-.615h42.178c.369 0 .668.275.668.615v23.673zM85.329 70.104c0 .797-.646 1.443-1.443 1.443H15.865a1.443 1.443 0 0 1-1.443-1.443V21.029c0-.798.646-1.443 1.443-1.443h68.021c.797 0 1.443.646 1.443 1.443v49.075zm-70.907-9.021h70.907M25.566 32.802l-5.19 7.022m13.585-9.311L21.947 46.845M47.62 24.457h4.511m4.323 53.695l-1.782-6.604h-9.73l-1.787 6.623c-2.365.615-5.684 1.627-5.684 1.917v1.877c0 .425.646.77 1.443.77h21.922c.797 0 1.443-.345 1.443-.77v-1.877c0-.293-3.429-1.323-5.825-1.936z"/>
</svg>
